/* XPM */
static char *desktop[] = {
/* columns rows colors chars-per-pixel */
"24 24 124 2 ",
"   c black",
".  c #202020",
"X  c #232323",
"o  c #2B2B2B",
"O  c #2C2C2C",
"+  c #2E2E2E",
"@  c #2F2F2F",
"#  c #323232",
"$  c #343434",
"%  c #353535",
"&  c #363636",
"*  c #373737",
"=  c #393939",
"-  c #3A3A3A",
";  c #3C3C3C",
":  c #3D3D3D",
">  c #3F3F3F",
",  c #414141",
"<  c #424242",
"1  c #444444",
"2  c #454545",
"3  c #464646",
"4  c #474747",
"5  c #484848",
"6  c #494949",
"7  c #4A4A4A",
"8  c #4B4B4B",
"9  c #4C4C4C",
"0  c #4D4D4D",
"q  c #4F4F4F",
"w  c #505050",
"e  c #515151",
"r  c #525252",
"t  c #545454",
"y  c #555555",
"u  c #565656",
"i  c #575757",
"p  c #5A5A5A",
"a  c #5B5B5B",
"s  c #5C5C5C",
"d  c #5D5D5D",
"f  c #5E5E5E",
"g  c #5F5F5F",
"h  c #606060",
"j  c #616161",
"k  c #626262",
"l  c #636363",
"z  c #646464",
"x  c #656565",
"c  c #666666",
"v  c #676767",
"b  c #696969",
"n  c #6B6B6B",
"m  c #6C6C6C",
"M  c #6D6D6D",
"N  c #6E6E6E",
"B  c #6F6F6F",
"V  c #717171",
"C  c #737373",
"Z  c #747474",
"A  c #757575",
"S  c #767676",
"D  c #777777",
"F  c #787878",
"G  c #7A7A7A",
"H  c #7D7D7D",
"J  c #7E7E7E",
"K  c #7F7F7F",
"L  c #808080",
"P  c #818181",
"I  c #828282",
"U  c #888888",
"Y  c #898989",
"T  c #8A8A8A",
"R  c #8D8D8D",
"E  c #8E8E8E",
"W  c #8F8F8F",
"Q  c #929292",
"!  c #939393",
"~  c #949494",
"^  c #959595",
"/  c #969696",
"(  c #979797",
")  c #999999",
"_  c #9A9A9A",
"`  c #9C9C9C",
"'  c #9E9E9E",
"]  c #9F9F9F",
"[  c #A0A0A0",
"{  c #A1A1A1",
"}  c #A3A3A3",
"|  c #A5A5A5",
" . c #A6A6A6",
".. c #A7A7A7",
"X. c #AAAAAA",
"o. c #ABABAB",
"O. c #AEAEAE",
"+. c #B0B0B0",
"@. c #B1B1B1",
"#. c #B4B4B4",
"$. c #B9B9B9",
"%. c #BBBBBB",
"&. c gray",
"*. c gray75",
"=. c gray76",
"-. c #C3C3C3",
";. c #C5C5C5",
":. c gray78",
">. c gray79",
",. c #CBCBCB",
"<. c gray80",
"1. c #CECECE",
"2. c LightGray",
"3. c #D7D7D7",
"4. c gray86",
"5. c gainsboro",
"6. c gray87",
"7. c #E3E3E3",
"8. c #E6E6E6",
"9. c #E7E7E7",
"0. c gray91",
"q. c gray93",
"w. c gray95",
"e. c None",
/* pixels */
"e.e.e.e.e.e.e.e.e.e.e.e.e.e.e.e.e.e.e.e.e.e.e.e.",
"e.e.e.e.e.e.e.e.e.e.e.e.e.e.e.e.e.e.e.e.e.e.e.e.",
"e.e.e.q.w.w.w.w.w.w.w.w.w.w.w.w.w.w.w.w.q.e.e.e.",
"e.e.8.-.^ ^ ^ ^ ^ ^ ^ ^ ^ ^ ^ ^ ^ ^ ^ ^ -.8.e.e.",
"e.e.q._ 9 2 t t 2 2 2 2 2 2 2 2 2 2 2 9 _ q.e.e.",
"e.e.0.] 2 V _ _ A A A A #.( / ( / ! Q 2 ( 9.e.e.",
"e.e.0.| 2 A I I F F F F +.' ' ' ' ' Q x :.@.X e.",
"e.e.8.X.O & $ $ * = = = b E L L H J ) | ^ p e.e.",
"e.e.7.O.+ % %.%.% * = = > / G A R | | l 3  .e.e.",
"e.e.6.#.o % o.o.& , , , , U A R @.Z - .  .5.e.e.",
"e.e.4.$.o % # # > 7 7 7 8 g D R 5 , a o $.5.e.e.",
"e.e.3.&.O % O.O.1 q r q w f - , d c h O *.3.e.e.",
"e.e.3.=.+ = Y Y 8 y 5 b : ; S m b z s O =.2.e.e.",
"e.e.1.>.+ < 1 7 6 N 4 ; f k A n c h i + >.2.e.e.",
"e.e.>.1.@ 4 q t r ; h M M n M m j p e @ 1.<.e.e.",
"e.e.;.3.@ 5 0 2 f b C D D C M b d y 7 + 3.;.e.e.",
"e.e.-.4.@ 8 y f v B S L K F B v g i 0 @ 4.-.e.e.",
"e.e.*.6.5 P T W ! ) ' } } } ) ~ W E P 5 6.*.e.e.",
"e.e.&.7.6 G / { ] ! ..O.} ( }  .` P L 5 7.&.e.e.",
"e.e.$.7.u 8 8 8 q e e e r r w q 8 8 8 u 7.$.e.e.",
"e.e.[ <.7.8.8.8.8.8.8.8.8.8.8.8.8.8.8.7.,.[ e.e.",
"e.e.3 } -.-.;.:.>.>.1.1.1.1.>.>.;.;.;.=.} 3 e.e.",
"e.e.e.e.                                e.e.e.e.",
"e.e.e.e.e.e.e.e.e.e.e.e.e.e.e.e.e.e.e.e.e.e.e.e."
};
