/* XPM */
static char *desktop[] = {
/* columns rows colors chars-per-pixel */
"16 16 87 1 ",
"  c #333333",
". c #373737",
"X c #383838",
"o c #393939",
"O c #3A3A3A",
"+ c #3D3D3D",
"@ c #3E3E3E",
"# c #3F3F3F",
"$ c #404040",
"% c #414141",
"& c #424242",
"* c #444444",
"= c #454545",
"- c #474747",
"; c #494949",
": c #4B4B4B",
"> c #4C4C4C",
", c gray31",
"< c #505050",
"1 c #515151",
"2 c #525252",
"3 c #545454",
"4 c #575757",
"5 c #585858",
"6 c #595959",
"7 c #5A5A5A",
"8 c #5B5B5B",
"9 c #5D5D5D",
"0 c #5F5F5F",
"q c #606060",
"w c #616161",
"e c #626262",
"r c #656565",
"t c #6A6A6A",
"y c #727272",
"u c #747474",
"i c #757575",
"p c #797979",
"a c #7B7B7B",
"s c gray49",
"d c #808080",
"f c #818181",
"g c #868686",
"h c #878787",
"j c #898989",
"k c gray54",
"l c #8D8D8D",
"z c #8E8E8E",
"x c gray56",
"c c #919191",
"v c #939393",
"b c #949494",
"n c #959595",
"m c #979797",
"M c #989898",
"N c #9A9A9A",
"B c #9B9B9B",
"V c gray61",
"C c #9F9F9F",
"Z c gray63",
"A c #A4A4A4",
"S c #A5A5A5",
"D c #A8A8A8",
"F c #A9A9A9",
"G c #ABABAB",
"H c #ACACAC",
"J c #AEAEAE",
"K c #B0B0B0",
"L c #B2B2B2",
"P c gray70",
"I c #B6B6B6",
"U c #B7B7B7",
"Y c #BBBBBB",
"T c gray74",
"R c #C1C1C1",
"E c gray77",
"W c #C8C8C8",
"Q c #CBCBCB",
"! c gray81",
"~ c #D2D2D2",
"^ c gray84",
"/ c gray85",
"( c #DFDFDF",
") c #E1E1E1",
"_ c #EFEFEF",
"` c white",
"' c None",
/* pixels */
"'UUUUUUUUUUUUUU'",
"L)````````````)L",
"J_zBBppppppppz_J",
"F(pBBppppppppp(F",
"S/oooooooooooolc",
"Z^oYYo@##@ooX8q,",
"V~oGG=;::;*>t*am",
"m!o%;<346-y, .!m",
"vQ@JJ607r5+&$OQb",
"xW*jjwre$+&=-&Wx",
"kE=30q-$1qq92;Ek",
"gR;30tidditw3;Rg",
"fTfCADNKKHbzhfTf",
"sIhhhznMMbchghUs",
"avPUUUUUUUUUUPvp",
"'uuuuuuuuuuuuuu'"
};
