/* XPM */
static char *desktop[] = {
/* columns rows colors chars-per-pixel */
"22 22 132 2 ",
"   c black",
".  c #1F1F1F",
"X  c #222222",
"o  c #2B2B2B",
"O  c #2C2C2C",
"+  c #2E2E2E",
"@  c #2F2F2F",
"#  c #313131",
"$  c #323232",
"%  c #333333",
"&  c #353535",
"*  c #363636",
"=  c #373737",
"-  c #393939",
";  c #3A3A3A",
":  c #3B3B3B",
">  c #3C3C3C",
",  c #3F3F3F",
"<  c #404040",
"1  c #414141",
"2  c #424242",
"3  c #444444",
"4  c #454545",
"5  c #474747",
"6  c #484848",
"7  c #494949",
"8  c #4B4B4B",
"9  c #4C4C4C",
"0  c #4D4D4D",
"q  c #4E4E4E",
"w  c #4F4F4F",
"e  c #505050",
"r  c #515151",
"t  c #525252",
"y  c #545454",
"u  c #555555",
"i  c #565656",
"p  c #575757",
"a  c #5A5A5A",
"s  c #5B5B5B",
"d  c #5C5C5C",
"f  c #5D5D5D",
"g  c #5E5E5E",
"h  c #5F5F5F",
"j  c #606060",
"k  c #616161",
"l  c #626262",
"z  c #636363",
"x  c #646464",
"c  c #666666",
"v  c #676767",
"b  c #696969",
"n  c #6A6A6A",
"m  c #6C6C6C",
"M  c #6D6D6D",
"N  c #6E6E6E",
"B  c #707070",
"V  c #717171",
"C  c #727272",
"Z  c #737373",
"A  c #747474",
"S  c #757575",
"D  c #767676",
"F  c #787878",
"G  c #7C7C7C",
"H  c #7D7D7D",
"J  c #7E7E7E",
"K  c #7F7F7F",
"L  c #808080",
"P  c #818181",
"I  c #828282",
"U  c #858585",
"Y  c #888888",
"T  c #898989",
"R  c #8A8A8A",
"E  c #8C8C8C",
"W  c #8D8D8D",
"Q  c #8E8E8E",
"!  c #8F8F8F",
"~  c #909090",
"^  c #929292",
"/  c #939393",
"(  c #949494",
")  c #959595",
"_  c #969696",
"`  c #979797",
"'  c #999999",
"]  c #9A9A9A",
"[  c #9C9C9C",
"{  c #9E9E9E",
"}  c #9F9F9F",
"|  c #A1A1A1",
" . c #A3A3A3",
".. c #A5A5A5",
"X. c #A6A6A6",
"o. c #A7A7A7",
"O. c #A9A9A9",
"+. c #AAAAAA",
"@. c #ABABAB",
"#. c #AEAEAE",
"$. c #B0B0B0",
"%. c #B1B1B1",
"&. c #B2B2B2",
"*. c #B4B4B4",
"=. c #B9B9B9",
"-. c #BBBBBB",
";. c gray",
":. c gray75",
">. c gray76",
",. c #C3C3C3",
"<. c gray77",
"1. c #C5C5C5",
"2. c gray78",
"3. c gray79",
"4. c gray80",
"5. c #CECECE",
"6. c gray81",
"7. c LightGray",
"8. c gray83",
"9. c #D7D7D7",
"0. c gray85",
"q. c gray86",
"w. c gainsboro",
"e. c gray87",
"r. c #E3E3E3",
"t. c #E4E4E4",
"y. c #E6E6E6",
"u. c #E7E7E7",
"i. c gray91",
"p. c #ECECEC",
"a. c gray95",
"s. c None",
/* pixels */
"s.s.s.s.s.s.s.s.s.s.s.s.s.s.s.s.s.s.s.s.s.s.",
"s.s.p.a.a.a.a.a.a.a.a.a.a.a.a.a.a.a.a.p.s.s.",
"s.i.,.) ) ) ) ) ) ) ) _ ) _ _ _ ) ) ) 1.u.s.",
"s.p.] 0 4 y y 4 4 4 4 4 4 4 4 4 4 4 0 ] p.s.",
"s.i.} 4 V ] ] S S S S *.` ) ) ) ) ~ 4 ) i.s.",
"s.i...4 S I I F F F F $.} } { } { ^ x 1.&.X ",
"s.t.+.O * % & = - - - b Q L L H J ' ../ a s.",
"s.r.%.o % -.-.% - - = , _ G S E ....z 5 X.s.",
"s.e.*.O & @.@.& , 1 1 2 Y J / &.A ; . ..w.s.",
"s.q.=.O & $ * , 5 8 0 0 g x W 6 < s o =.q.s.",
"s.9.;.O & #.#.3 e e q e g ; < d c j o ;.9.s.",
"s.8.,.O - T T 8 i 6 b > # D D c x d O ,.8.s.",
"s.6.3.+ , 4 8 7 N 6 : g l H M c j p + 3.4.s.",
"s.4.4.@ 5 r u t : k N N M M M h f r @ 5.4.s.",
"s.2.8.# 5 9 4 f n Z F D C m b f t 0 @ 7.3.s.",
"s.<.0.# 8 t g v N D K K F B v h p 0 # 0.1.s.",
"s.:.e.7 P Q ! ( ' {  . .{ ' ` ! R P 6 e.:.s.",
"s.;.r.7 G _ | } / o.#.O.'  .X.[ U H 6 r.;.s.",
"s.=.r.i 7 8 8 w t r t t t t w 8 8 7 i t.=.s.",
"s.} 3.r.t.i.t.t.t.i.t.t.t.y.t.y.t.i.r.3.} s.",
"s.5  .>.1.1.3.3.3.4.4.7.4.4.3.1.1.1.>. .5 s.",
"s.s.s.                                s.s.s."
};
