<?xml version="1.0" encoding="UTF-8" standalone="no"?>
<svg
   xmlns:dc="http://purl.org/dc/elements/1.1/"
   xmlns:cc="http://creativecommons.org/ns#"
   xmlns:rdf="http://www.w3.org/1999/02/22-rdf-syntax-ns#"
   xmlns:svg="http://www.w3.org/2000/svg"
   xmlns="http://www.w3.org/2000/svg"
   xmlns:sodipodi="http://sodipodi.sourceforge.net/DTD/sodipodi-0.dtd"
   xmlns:inkscape="http://www.inkscape.org/namespaces/inkscape"
   width="95.99999999999999"
   height="95.99999999999999"
   id="svg2"
   version="1.1"
   inkscape:version="0.48.5 r10040"
   sodipodi:docname="method-draw-image.svg">
  <metadata
     id="metadata28">
    <rdf:RDF>
      <cc:Work
         rdf:about="">
        <dc:format>image/svg+xml</dc:format>
        <dc:type
           rdf:resource="http://purl.org/dc/dcmitype/StillImage" />
      </cc:Work>
    </rdf:RDF>
  </metadata>
  <defs
     id="defs26" />
  <sodipodi:namedview
     pagecolor="#ffffff"
     bordercolor="#666666"
     borderopacity="1"
     objecttolerance="10"
     gridtolerance="10"
     guidetolerance="10"
     inkscape:pageopacity="0"
     inkscape:pageshadow="2"
     inkscape:window-width="838"
     inkscape:window-height="767"
     id="namedview24"
     showgrid="false"
     inkscape:zoom="2.4583333"
     inkscape:cx="7.8159701e-14"
     inkscape:cy="48"
     inkscape:window-x="106"
     inkscape:window-y="511"
     inkscape:window-maximized="0"
     inkscape:current-layer="svg2" />
  <!-- Created with Method Draw - http://github.com/duopixel/Method-Draw/ -->
  <g
     id="g4">
    <title
       id="title6">background</title>
    <rect
       fill="none"
       id="canvas_background"
       height="98"
       width="98"
       y="-1"
       x="-1" />
    <g
       display="none"
       overflow="visible"
       y="0"
       x="0"
       height="100%"
       width="100%"
       id="canvasGrid">
      <rect
         fill="url(#gridpattern)"
         stroke-width="0"
         y="0"
         x="0"
         height="100%"
         width="100%"
         id="rect10" />
    </g>
  </g>
  <g
     id="g12"
     transform="matrix(1.0033601,0,0,0.99409239,0.00698797,-23.730273)">
    <title
       id="title14">Layer 1</title>
    <path
       id="svg_5"
       d="m 72.751846,47.038064 6.915964,0 0,-7.28868 7.094466,0 0,7.28868 6.915965,0 0,7.476802 -6.915965,0 0,7.288679 -7.094466,0 0,-7.288679 -6.915964,0 0,-7.476802 z"
       stroke-opacity="null"
       inkscape:connector-curvature="0"
       style="fill:#dddddd;stroke:#ffffff;stroke-width:0" />
    <path
       id="svg_6"
       d="m 49.751846,47.038064 6.91596,0 0,-7.28868 7.09447,0 0,7.28868 6.91596,0 0,7.4768 -6.91596,0 0,7.28868 -7.09447,0 0,-7.28868 -6.91596,0 0,-7.4768 z"
       stroke-opacity="null"
       inkscape:connector-curvature="0"
       style="fill:#dddddd;stroke:#ffffff;stroke-width:0" />
    <rect
       id="svg_8"
       height="6.6413078"
       width="6"
       y="55.455811"
       x="40.669498"
       style="fill:#444444;stroke:#ffffff;stroke-width:0" />
    <rect
       transform="matrix(0,1,-1,0,57.854746,17.882078)"
       id="svg_10"
       height="36"
       width="6"
       y="19.868408"
       x="16.986334"
       style="fill:#444444;stroke:#ffffff;stroke-width:0" />
    <rect
       id="svg_12"
       height="24.56032"
       width="6"
       y="26.635029"
       x="40.669498"
       style="fill:#444444;stroke:#ffffff;stroke-width:0" />
    <rect
       transform="matrix(0,-1,1,0,-30.162237,70.636133)"
       id="svg_13"
       height="36"
       width="6"
       y="32.399185"
       x="17.23695"
       style="fill:#444444;stroke:#ffffff;stroke-width:0" />
    <rect
       id="svg_14"
       height="36"
       width="6"
       y="25.883181"
       x="22.75049"
       style="fill:#444444;stroke:#ffffff;stroke-width:0" />
    <rect
       id="svg_15"
       height="36"
       width="6"
       y="26.00849"
       x="10.219714"
       style="fill:#444444;stroke:#ffffff;stroke-width:0" />
  </g>
</svg>
