/* XPM */
static char *desktop[] = {
/* columns rows colors chars-per-pixel */
"48 48 135 2 ",
"   c black",
".  c gray4",
"X  c #131313",
"o  c #151515",
"O  c #171717",
"+  c #1B1B1B",
"@  c #1F1F1F",
"#  c #212121",
"$  c #222222",
"%  c #232323",
"&  c #242424",
"*  c #252525",
"=  c #292929",
"-  c #2A2A2A",
";  c #2B2B2B",
":  c #2E2E2E",
">  c #2F2F2F",
",  c #303030",
"<  c #333333",
"1  c #343434",
"2  c #363636",
"3  c #373737",
"4  c #393939",
"5  c #3A3A3A",
"6  c #3B3B3B",
"7  c #3C3C3C",
"8  c #3D3D3D",
"9  c #3E3E3E",
"0  c #3F3F3F",
"q  c #404040",
"w  c #414141",
"e  c #424242",
"r  c #434343",
"t  c #444444",
"y  c #454545",
"u  c #474747",
"i  c #484848",
"p  c #494949",
"a  c #4A4A4A",
"s  c #4B4B4B",
"d  c #4C4C4C",
"f  c #4D4D4D",
"g  c #4F4F4F",
"h  c #505050",
"j  c #515151",
"k  c #525252",
"l  c #535353",
"z  c #545454",
"x  c #565656",
"c  c #575757",
"v  c #585858",
"b  c #595959",
"n  c #5A5A5A",
"m  c #5B5B5B",
"M  c #5C5C5C",
"N  c #5D5D5D",
"B  c #5F5F5F",
"V  c #606060",
"C  c #616161",
"Z  c #626262",
"A  c #636363",
"S  c #646464",
"D  c #656565",
"F  c #666666",
"G  c #686868",
"H  c #696969",
"J  c #6A6A6A",
"K  c #6B6B6B",
"L  c #6C6C6C",
"P  c #6D6D6D",
"I  c #6E6E6E",
"U  c #6F6F6F",
"Y  c #707070",
"T  c #717171",
"R  c #727272",
"E  c #737373",
"W  c #747474",
"Q  c #757575",
"!  c #767676",
"~  c #777777",
"^  c #787878",
"/  c #797979",
"(  c #7A7A7A",
")  c #7C7C7C",
"_  c #7D7D7D",
"`  c #7E7E7E",
"'  c #7F7F7F",
"]  c #818181",
"[  c #828282",
"{  c #838383",
"}  c #858585",
"|  c #868686",
" . c #8A8A8A",
".. c #8C8C8C",
"X. c #8D8D8D",
"o. c #8F8F8F",
"O. c #919191",
"+. c #939393",
"@. c #949494",
"#. c #959595",
"$. c #969696",
"%. c #979797",
"&. c #9A9A9A",
"*. c #9B9B9B",
"=. c #9C9C9C",
"-. c #9D9D9D",
";. c #9E9E9E",
":. c #9F9F9F",
">. c #A0A0A0",
",. c #A1A1A1",
"<. c #A3A3A3",
"1. c #A4A4A4",
"2. c #A7A7A7",
"3. c #A8A8A8",
"4. c #A9A9A9",
"5. c #AAAAAA",
"6. c #ACACAC",
"7. c #AEAEAE",
"8. c #B1B1B1",
"9. c #B2B2B2",
"0. c #B3B3B3",
"q. c #B4B4B4",
"w. c #B6B6B6",
"e. c #B7B7B7",
"r. c #B9B9B9",
"t. c #BCBCBC",
"y. c #C0C0C0",
"u. c #C3C3C3",
"i. c gray80",
"p. c LightGray",
"a. c gray86",
"s. c #E4E4E4",
"d. c gray93",
"f. c gray97",
"g. c None",
/* pixels */
"g.g.g.g.g.g.g.g.g.g.g.g.g.g.g.g.g.g.g.g.g.g.g.g.g.g.g.g.g.g.g.g.g.g.g.g.g.g.g.g.g.g.g.g.g.g.g.g.",
"g.g.g.g.g.g.g.g.g.g.g.g.g.g.g.g.g.g.g.g.g.g.g.g.g.g.g.g.g.g.g.g.g.g.g.g.g.g.g.g.g.g.g.g.g.g.g.g.",
"g.g.g.g.g.g.g.g.g.g.g.g.g.g.g.g.g.g.g.g.g.g.g.g.g.g.g.g.g.g.g.g.g.g.g.g.g.g.g.g.g.g.g.g.g.g.g.g.",
"g.g.g.g.p.d.f.f.f.f.f.f.f.f.f.f.f.f.f.f.f.f.f.f.f.f.f.f.f.f.f.f.f.f.f.f.f.f.f.f.f.f.d.p.g.g.g.g.",
"g.g.g.u.d.s.s.s.s.s.s.s.s.s.s.s.s.s.s.s.s.s.d.d.d.f.d.d.d.f.d.d.d.d.d.d.d.f.d.d.d.d.d.f.u.g.g.g.",
"g.g.g.s.s.s.s.s.s.s.s.s.s.s.s.s.s.s.s.s.s.s.s.d.d.d.d.d.d.d.d.d.d.d.d.d.d.d.d.d.f.d.d.d.s.g.g.g.",
"g.g.g.d.a.s.a.t.6.6.6.6.<.6.6.6.6.6.6.6.6.6.6.6.6.6.6.6.6.6.6.6.6.6.6.<.6.6.6.6.i.s.d.d.d.g.g.g.",
"g.g.g.s.s.s.u.,.Z b M M M M Z M M Z M M b M M M M M M M M M M M Z j Z Z b b b Z ,.u.d.d.s.g.g.g.",
"g.g.g.s.a.a.w.Z R ( 3.3.( ( ( ( { ( ( ( ( ( ( ( 8.*.;.;.;.;.;.&.;.;.;.;.$.;.&.O.Z w.s.d.d.g.g.g.",
"g.g.g.s.s.a.6.M ( ( 6.6.~ =.3.=.#.#.=.@.%.#.` ] 7.,.,.,.;.,.;.>.>.,.;.:.;.;.;.;.b 6.d.d.s.g.g.g.",
"g.g.g.s.a.a.w.b ( ' ' ' ( ` } ` ( } ( } } ( ` ` =.,.>.>.;.,.;.>.,.,.,.:.;.,.;.;.b 6.s.u.p.g.g.g.",
"g.g.g.s.a.a.w., 5 0 0 0 e 0 0 e 7 p e e y e e e a :...| | ..| ..| | | | | | | [ : 6.t.p.t.s.8 < ",
"g.g.g.s.a.a.w., 0 0 e e e e e e u u 0 u 0 e y e e X.| | | | ..| | | | | | | { ' } i.a.i.p.t.;.g.",
"g.g.g.s.a.a.w., 9 0 5 5 9 9 e y u 7 7 u y e e y y U o.| | | | | | { | | | { +.y.w.<.a.w.+.P ..g.",
"g.g.g.s.a.a.w., 9 9 ] 2.$.Q 9 e 0 u s u u u u u u a =.| | | | | | [ | ] X.e.w.,.p.t.;.Q s & g.g.",
"g.g.g.s.a.p.w., 9 5 q.e.e.q.7 p u u u s a a a a u f } | | | | [ ] ] } 4.u.-.y.i.6.{ x z w.g.g.g.",
"g.g.g.a.p.a.t., 9 4 6.-.-.5.5 a s a a s g g g g a g K o.( ..( o.} =.u.6.6.p.6...D s +.a.a.g.g.g.",
"g.g.g.a.a.a.t., 9 5 { O.O.{ q g g g g g g g g g g g l 1...~ ..~ r.6.<.a.r.+.P s * 6.a.a.a.g.g.g.",
"g.g.g.a.p.p.y., 9 e 7 9 q i a g g l l l l c l l l l l (  .( ( ,.6.p.y.-./ z w C - r.p.a.a.g.g.g.",
"g.g.g.p.p.p.u., q e 7 9 q q a l l l l c c c c c c c c K o.J B s.i.6.{ M 0 Z T G - y.a.a.a.g.g.g.",
"g.g.g.a.p.i.u., e 9 6.+.+.,.a l c c c c c N c N n n c c 6 X t ....D t h U T T T , u.a.p.p.g.g.g.",
"g.g.g.a.p.p.u.3 y q y.i.r.w.p c c b c N N C C N N N w = ; X . < s r J T T Q ! L ; t.i.p.p.g.g.g.",
"g.g.g.p.i.p.i.3 u q y.i.w.w.f n N N N C C C N N v 5 8 + = . O h J U T ! T T G Z : r.i.p.p.g.g.g.",
"g.g.g.p.p.i.u.3 u y +.-.<.} f n N N C N N D C t q q < X o N K Q ! ! ! F Z F F Z , r.i.p.p.g.g.g.",
"g.g.g.p.i.i.i.3 s s p y f j n N B B D D S j < 8 8 ; = 2 x T ~ ~ ! Z V C A F F Z , t.i.i.i.g.g.g.",
"g.g.g.p.i.i.i.3 s k z z m m N B C D Z n 6 s 8 $ ; 1 c c C V R S V V Z Z Z A A Z , t.i.p.p.g.g.g.",
"g.g.g.i.i.i.i.3 s k z m m N B Z D Z u t 8 & ; = f v g j i a Z V V V V Z Z Z Z Z 3 i.p.i.i.g.g.g.",
"g.g.g.i.i.i.i.4 g z z m N N B Z x y t < @ # q s i i i a a a n V Z G Z F L I I D 4 i.i.p.i.g.g.g.",
"g.g.g.i.u.i.p.4 g z m m N B Z h z 8 & $ > q q y y i s s f c C ` ~ ~ W T I I G F 3 p.i.i.i.g.g.g.",
"g.g.g.i.u.u.p.5 d m m m N n N s < $ % 2 q q q y s x S K P K K _ ~ W W T L L G V 4 p.i.i.i.g.g.g.",
"g.g.g.u.u.u.p.4 k z m m V x 8 $ & > 6 q s x C I ^ Q R R E P P R ~ W I L L G D V 3 p.i.u.u.g.g.g.",
"g.g.g.i.u.u.p.4 k m m x 7 # & q s n S R ^ ^ ^ ^ ^ ^ ^ Q Q R P P ~ R I K I D D n 8 a.i.u.u.g.g.g.",
"g.g.g.u.u.u.p.8 g b B B z m G P P P Q Q Q ) ) ) ) ) Q Q Q R P P E R K G D D C c 5 a.u.u.u.g.g.g.",
"g.g.g.u.y.u.a.8 k b m B F F G K P R Q Q Q ' ' ' ' ' ' ) Q R R P P K I G Z Z B c 4 a.u.u.u.g.g.g.",
"g.g.g.u.u.u.a.8 k m B B F F G P P R Q ) ) ' ' [ [ ' ' ) ) Q R R P G G Z B B v z 4 a.u.u.u.g.g.g.",
"g.g.g.t.y.y.a.8 k m m B F F G P P Q Q Q ) ' [ [ [ ' ' ) Q Q Q P P G F Z B B v z 8 a.y.y.y.g.g.g.",
"g.g.g.t.y.t.a.8 k m N B B F G P R R Q Q ) ' [ [ [ [ ' ) Q Q Q P P F F Z B v v z 8 s.t.y.y.g.g.g.",
"g.g.g.u.y.t.a.Z {  .o...O.O.$.$.$.$.:.:.:.,.,.,.,.:.,.:.&.&.&.$.$.$.$.O.o.o. .} Z a.t.t.y.g.g.g.",
"g.g.g.t.t.t.s.Z {  .1.5.5.7.,.$.7.9.9.0.9.:.w.w.w.w.0.:.:.$.&.$.$.$.O.O.o.o. .{ Z s.t.t.t.g.g.g.",
"g.g.g.t.t.t.s.I ( } X.+.+.+.$.O.$.*.*.*.;.$.>.>.,.>.;.$.$.O.+.O... . . . .{ { ( I s.t.t.y.g.g.g.",
"g.g.g.t.w.t.p.y.Y S H F H I H P Y U U Y Y Y R Y Y R Y Y Y Y U I P I H P H S S Y y.p.t.w.t.g.g.g.",
"g.g.g.t.r.r.y.p.s.s.s.s.s.s.s.s.s.s.s.s.s.s.s.s.s.s.s.s.s.s.s.s.s.s.s.s.s.s.s.s.a.r.w.r.t.g.g.g.",
"g.g.g.;.w.r.w.w.r.r.w.w.w.r.r.w.r.w.w.w.r.r.w.w.t.w.w.w.r.r.w.w.w.r.w.w.w.r.w.w.w.w.w.w.;.g.g.g.",
"g.g.g.M t.w.w.r.w.w.w.w.w.w.w.w.w.w.w.r.r.w.w.w.w.w.w.w.w.w.w.w.w.w.w.w.w.w.w.w.w.w.w.r.B g.g.g.",
"g.g.g.. M <.t.t.t.u.u.u.u.i.u.i.i.i.i.i.i.i.p.p.p.p.p.i.i.i.i.i.i.u.i.u.u.u.u.u.y.t.<.M . g.g.g.",
"g.g.g.g.g.                                                                            g.g.g.g.g.",
"g.g.g.g.g.g.g.g.g.g.g.g.g.g.g.g.g.g.g.g.g.g.g.g.g.g.g.g.g.g.g.g.g.g.g.g.g.g.g.g.g.g.g.g.g.g.g.g.",
"g.g.g.g.g.g.g.g.g.g.g.g.g.g.g.g.g.g.g.g.g.g.g.g.g.g.g.g.g.g.g.g.g.g.g.g.g.g.g.g.g.g.g.g.g.g.g.g."
};
