/* XPM */
static char *desktop[] = {
/* columns rows colors chars-per-pixel */
"32 32 115 2 ",
"   c black",
".  c gray9",
"X  c #212121",
"o  c #232323",
"O  c #252525",
"+  c #272727",
"@  c #2B2B2B",
"#  c #2C2C2C",
"$  c #333333",
"%  c #363636",
"&  c #373737",
"*  c #383838",
"=  c #3A3A3A",
"-  c #3C3C3C",
";  c #404040",
":  c #414141",
">  c #424242",
",  c #444444",
"<  c #454545",
"1  c #474747",
"2  c #484848",
"3  c #4A4A4A",
"4  c #4C4C4C",
"5  c #4D4D4D",
"6  c #4E4E4E",
"7  c #4F4F4F",
"8  c #505050",
"9  c #525252",
"0  c #535353",
"q  c #545454",
"w  c #555555",
"e  c #575757",
"r  c #585858",
"t  c #595959",
"y  c #5A5A5A",
"u  c #5B5B5B",
"i  c #5C5C5C",
"p  c #5D5D5D",
"a  c #5F5F5F",
"s  c #616161",
"d  c #626262",
"f  c #636363",
"g  c #666666",
"h  c #676767",
"j  c #686868",
"k  c #696969",
"l  c #6A6A6A",
"z  c #6C6C6C",
"x  c #6D6D6D",
"c  c #6E6E6E",
"v  c #6F6F6F",
"b  c #717171",
"n  c #737373",
"m  c #747474",
"M  c #757575",
"N  c #777777",
"B  c #797979",
"V  c #7B7B7B",
"C  c #7C7C7C",
"Z  c #7D7D7D",
"A  c #7F7F7F",
"S  c #808080",
"D  c #818181",
"F  c #828282",
"G  c #838383",
"H  c #848484",
"J  c #858585",
"K  c #868686",
"L  c #878787",
"P  c #898989",
"I  c #8B8B8B",
"U  c #8C8C8C",
"Y  c #8D8D8D",
"T  c #8E8E8E",
"R  c #909090",
"E  c #929292",
"W  c #939393",
"Q  c gray58",
"!  c #969696",
"~  c #979797",
"^  c #9B9B9B",
"/  c #9D9D9D",
"(  c #9F9F9F",
")  c #A0A0A0",
"_  c #A3A3A3",
"`  c #A4A4A4",
"'  c #A5A5A5",
"]  c #A6A6A6",
"[  c #A7A7A7",
"{  c #A8A8A8",
"}  c #A9A9A9",
"|  c #ACACAC",
" . c #AEAEAE",
".. c #B0B0B0",
"X. c #B1B1B1",
"o. c #B2B2B2",
"O. c #B3B3B3",
"+. c #B4B4B4",
"@. c #B6B6B6",
"#. c #B7B7B7",
"$. c #B8B8B8",
"%. c #B9B9B9",
"&. c #BCBCBC",
"*. c #C3C3C3",
"=. c #C5C5C5",
"-. c #CACACA",
";. c gray80",
":. c #CECECE",
">. c #CFCFCF",
",. c LightGray",
"<. c gray86",
"1. c gray89",
"2. c #ECECEC",
"3. c gray95",
"4. c None",
/* pixels */
"4.4.4.4.4.4.4.4.4.4.4.4.4.4.4.4.4.4.4.4.4.4.4.4.4.4.4.4.4.4.4.4.",
"4.4.4.4.4.4.4.4.4.4.4.4.4.4.4.4.4.4.4.4.4.4.4.4.4.4.4.4.4.4.4.4.",
"4.4.4.2.3.3.3.3.3.3.3.3.3.3.3.3.3.3.3.3.3.3.3.3.3.3.3.3.2.4.4.4.",
"4.4.<.1.1.1.1.1.1.1.1.1.1.1.1.2.3.2.2.3.3.2.2.2.2.2.3.3.2.<.4.4.",
"4.4.2.1.;. .] ] ] ] ] ] ] ] | +.] ] ] ] ] ] [ [ ] [ X.,.2.2.4.4.",
"4.4.1.1. .g n T N N N N N n N N ~ R R R Y Y Y Y Y Y M X.2.2.4.4.",
"4.4.1.<.] n D ! N ! T T T T N N { ) ) ) ( ) ) ( ( ( I [ 2.1.4.4.",
"4.4.1.<.` 7 e r e e e e e e e e F R R R E R E R R R b ^ #.*./ 4 ",
"4.4.1.<.` - > > > > > > > > > > 6 W K K K K K K K A J &.=.*.| 4.",
"4.4.<.<.` - : ~ B 1 > 1 1 1 1 1 3 L K K K K H D P ..#.*./ z # 4.",
"4.4.<.<.` ; u ....r 1 5 3 3 3 3 3 b K K K D S ] %.*.] B i | 4.4.",
"4.4.<.,.` ; 7 ! ! 9 5 5 3 7 e 7 7 e R H D Y $.#.#.H 8 x <.<.4.4.",
"4.4.<.,.[ - > : - 3 7 7 e w e e e e H K B &.&.Q a 1 q _ <.<.4.4.",
"4.4.,.,.| ; 5 S Z 0 q e e e e e e e f + i ] z 4 f b a | <.,.4.4.",
"4.4.,.,.| > 8 <.*.t e p e p p p p & # . . $ y b m m r _ ,.,.4.4.",
"4.4.,.:...> 5 #.] e e p f a f 6 & = . @ f m m b g f q _ ;.,.4.4.",
"4.4.;.;...1 6 4 6 e s d g i ; = $ @ 1 j N n a g f g q ` ;.;.4.4.",
"4.4.;.;...1 w w y a d g , 2 # O 1 r 6 6 f a a a d d q | :.;.4.4.",
"4.4.;.*.+.4 w y p d w 1 = X # < 1 1 3 3 a j j l z z e +.,.;.4.4.",
"4.4.;.;...4 y y a 9 8 # o % > < 4 w f h m N m b z k e $.;.;.4.4.",
"4.4.*.;.+.5 y y r * X % 1 w f b B M b b x N m v k g e +.;.*.4.4.",
"4.4.*.*.$.5 y y 3 q s x b B C A S B M M x b v l g f q $.*.*.4.4.",
"4.4.*.&.$.5 y a d h x b b B A G S S M M b x l h d p 7 $.*.*.4.4.",
"4.4.&.*.&.5 y a d h x b B B A G S S B M b x h h a r 7 $.*.*.4.4.",
"4.4.&.&.=.a z z m N V A A J U U U U J J A V N m v z f &.&.*.4.4.",
"4.4.&.&.=.A W { } } ( ..o.o.' @.O.O.^ ^ ~ ~ W R R Y N =.&.&.4.4.",
"4.4.&.&.>.c A D L I L I R W R R W W R Y Y I H D F A c :.&.&.4.4.",
"4.4.&.#.;.>.-.-.-.-.-.-.-.-.-.:.-.-.-.-.-.-.-.-.-.=.>.;.#.&.4.4.",
"4.4./ &.#.#.#.#.#.#.&.#.#.#.#.#.%.#.#.#.#.&.#.#.#.#.#.#.#./ 4.4.",
"4.4.> / &.&.&.&.&.*.*.*.*.*.;.;.;.*.=.*.*.*.&.*.&.&.&.&./ > 4.4.",
"4.4.4.4.                                                4.4.4.4.",
"4.4.4.4.4.4.4.4.4.4.4.4.4.4.4.4.4.4.4.4.4.4.4.4.4.4.4.4.4.4.4.4."
};
